<svg xmlns="http://www.w3.org/2000/svg" width="256" height="271" preserveAspectRatio="xMidYMid"><defs><linearGradient id="a" x1="25.071%" x2="96.132%" y1="90.929%" y2="55.184%"><stop offset="0%" stop-color="#000000"/><stop offset="24%" stop-color="#000000"/><stop offset="35.2%" stop-color="#000000"/><stop offset="49.4%" stop-color="#000000"/><stop offset="74.5%" stop-color="#000000"/><stop offset="100%" stop-color="#000000"/></linearGradient><linearGradient id="b" x1="21.863%" x2="68.367%" y1="12.058%" y2="68.21%"><stop offset="0%" stop-color="#000000"/><stop offset="100%" stop-color="#000000" stop-opacity="0"/></linearGradient></defs><path fill="url(#a)" d="m256 45.179-9.244 145.158L158.373 0zm-61.217 187.697-66.782 38.105-66.784-38.105L74.8 199.958h106.4zM128.001 72.249l34.994 85.076h-69.99zM9.149 190.337 0 45.179 97.627 0z"/><path fill="url(#b)" d="m256 45.179-9.244 145.158L158.373 0zm-61.217 187.697-66.782 38.105-66.784-38.105L74.8 199.958h106.4zM128.001 72.249l34.994 85.076h-69.99zM9.149 190.337 0 45.179 97.627 0z"/></svg>